<svg width="57" height="51" viewBox="0 0 57 51" fill="none" xmlns="http://www.w3.org/2000/svg">
<path d="M55.9147 12.6883C54.9821 9.02358 52.9941 5.86391 50.1658 3.55015C47.4105 1.29623 44.0346 0.0548096 40.6615 0.0548096C38.075 0.0548096 35.608 0.752563 33.3287 2.12845C31.5287 3.21492 29.9095 4.69349 28.4953 6.5381C25.2782 2.33733 21.0318 0.0548096 16.3346 0.0548096C12.9623 0.0548096 9.58832 1.29623 6.83349 3.55015C4.00603 5.86391 2.01846 9.02358 1.08582 12.6879C0.0714766 16.673 -0.124633 23.0415 4.70024 30.7512C9.16624 37.887 16.9076 44.4983 27.7096 50.4024C27.9545 50.5365 28.2244 50.6032 28.4949 50.6032C28.7654 50.6032 29.0358 50.5363 29.2807 50.4024C40.0853 44.4983 47.8296 37.8866 52.2973 30.7512C57.124 23.0415 56.9287 16.6734 55.9147 12.6883Z" fill="#FF5B5B"/>
<path d="M55.9147 12.6883C54.9821 9.02358 52.9941 5.86391 50.1657 3.55015C47.4105 1.29623 44.0346 0.0548096 40.6615 0.0548096C38.075 0.0548096 35.608 0.752563 33.3286 2.12845C31.5304 3.21404 29.9133 4.6901 28.4999 6.53251V50.6032C28.7726 50.6023 29.0407 50.5333 29.2801 50.4024C40.0852 44.4983 47.8295 37.8866 52.2967 30.7512C57.1238 23.0415 56.9285 16.6734 55.9146 12.6883H55.9147Z" fill="#FF0059"/>
<path d="M12.3963 26.0638L14.4432 21.9618L20.0038 33.1053C20.1401 33.3783 20.3495 33.6079 20.6086 33.7685C20.8677 33.929 21.1663 34.014 21.471 34.0141C22.0927 34.0141 22.6604 33.6622 22.9381 33.1053L28.4992 21.9618L30.5462 26.0638C30.6824 26.3368 30.8918 26.5664 31.1509 26.7269C31.4101 26.8873 31.7087 26.9723 32.0133 26.9723H44.4539C45.3597 26.9723 46.0941 26.2363 46.0941 25.3287C46.0941 24.4212 45.3597 23.6853 44.4539 23.6853H33.0272L29.9664 17.5518C29.8301 17.2788 29.6207 17.0493 29.3615 16.8888C29.1024 16.7284 28.8038 16.6434 28.4992 16.6434C27.878 16.6434 27.3103 16.9953 27.032 17.5519L21.4714 28.6952L15.9104 17.5518C15.7743 17.2787 15.5649 17.049 15.3057 16.8885C15.0466 16.728 14.7479 16.6429 14.4432 16.6429C14.1386 16.6429 13.8399 16.728 13.5808 16.8885C13.3216 17.049 13.1122 17.2787 12.976 17.5518L9.9157 23.6853H1.44043C1.75434 24.741 2.15903 25.8377 2.66915 26.9721H10.9295C11.2341 26.9721 11.5326 26.8872 11.7916 26.7267C12.0507 26.5663 12.2602 26.3367 12.3963 26.0638Z" fill="#E7F0EF"/>
<path d="M44.4535 23.6854H33.0267L29.9663 17.5518C29.8301 17.279 29.6208 17.0495 29.3619 16.8891C29.1029 16.7287 28.8045 16.6436 28.5001 16.6434V21.964L30.5457 26.0638C30.682 26.3369 30.8915 26.5665 31.1507 26.7269C31.4099 26.8874 31.7086 26.9724 32.0133 26.9723H44.4535C45.3594 26.9723 46.0942 26.2363 46.0942 25.3288C46.0937 24.4213 45.3594 23.6854 44.4535 23.6854Z" fill="#C5E1E6"/>
</svg>
