<svg width="57" height="56" viewBox="0 0 57 56" fill="none" xmlns="http://www.w3.org/2000/svg">
<path d="M28.5 1.64062C13.9422 1.64062 2.14062 13.4421 2.14062 28H54.8594C54.8594 13.4421 43.0578 1.64062 28.5 1.64062Z" fill="#99DAFF"/>
<path d="M54.8594 28C54.8594 13.4421 43.0579 1.64062 28.5 1.64062V28H54.8594Z" fill="#53ACF5"/>
<path d="M48.2991 8.20094C43.0105 2.91255 35.9791 0 28.5 0C21.0209 0 13.9895 2.91255 8.70094 8.20094C3.41255 13.4895 0.5 20.5209 0.5 28H56.5C56.5 20.5209 53.5875 13.4895 48.2991 8.20094ZM13.705 26.3594H3.83506C4.06179 22.8983 5.01968 19.5247 6.64556 16.4609H14.9582C14.2351 19.551 13.8078 22.8969 13.705 26.3594ZM8.73091 13.1797C11.6043 9.35648 15.5585 6.39045 20.1363 4.73933C19.2637 5.85298 18.4512 7.15127 17.713 8.62739C17.0114 10.0307 16.3956 11.557 15.8692 13.1797H8.73091ZM26.8594 26.3594H16.9875C17.0972 22.8615 17.5568 19.5069 18.3327 16.4609H26.8594V26.3594ZM26.8594 13.1797H19.335C19.7276 12.0922 20.1653 11.06 20.648 10.0948C22.3936 6.60352 24.5923 4.31386 26.8594 3.55731V13.1797ZM30.1406 3.55731C32.4077 4.31386 34.6064 6.60352 36.352 10.0948C36.8346 11.0599 37.2724 12.0922 37.665 13.1797H30.1406V3.55731ZM30.1406 26.3594V16.4609H38.6673C39.4432 19.5069 39.9028 22.8615 40.0125 26.3594H30.1406ZM39.2869 8.62739C38.5488 7.15127 37.7363 5.85298 36.8637 4.73933C41.4415 6.39045 45.3957 9.35648 48.2691 13.1797H41.1307C40.6043 11.557 39.9885 10.0307 39.2869 8.62739ZM42.0418 16.4609H50.3544C51.9803 19.5247 52.9382 22.8983 53.1649 26.3594H43.295C43.1922 22.8969 42.7649 19.551 42.0418 16.4609Z" fill="#4793FF"/>
<path d="M28.5 0V28H56.5C56.5 20.5209 53.5875 13.4895 48.2991 8.20094C43.0105 2.91255 35.9791 0 28.5 0ZM30.1406 3.55731C32.4078 4.31386 34.6064 6.60352 36.352 10.0948C36.8346 11.0599 37.2724 12.0922 37.665 13.1797H30.1406V3.55731ZM30.1406 26.3594V16.4609H38.6673C39.4432 19.5069 39.9028 22.8615 40.0125 26.3594H30.1406ZM39.2869 8.62739C38.5488 7.15127 37.7363 5.85298 36.8637 4.73933C41.4415 6.39045 45.3957 9.35648 48.2691 13.1797H41.1307C40.6043 11.557 39.9885 10.0307 39.2869 8.62739ZM53.1649 26.3594H43.295C43.1922 22.8969 42.765 19.551 42.0418 16.4609H50.3544C51.9803 19.5247 52.9382 22.8983 53.1649 26.3594Z" fill="#424FDD"/>
<path d="M54.8594 56H2.14062C1.23456 56 0.5 55.2654 0.5 54.3594V28C0.5 27.0939 1.23456 26.3594 2.14062 26.3594H54.8594C55.7654 26.3594 56.5 27.0939 56.5 28V54.3594C56.5 55.2654 55.7654 56 54.8594 56Z" fill="#EBFAFF"/>
<path d="M54.8594 26.3594H28.5V56H54.8594C55.7654 56 56.5 55.2654 56.5 54.3594V28C56.5 27.0939 55.7654 26.3594 54.8594 26.3594Z" fill="#C3E6FF"/>
<path d="M3.78125 29.6406H53.2188V52.7188H3.78125V29.6406Z" fill="#FFEA98"/>
<path d="M28.5 29.6406H53.2188V52.7188H28.5V29.6406Z" fill="#FFB454"/>
<path d="M16.4896 36.1899C16.4824 35.4393 15.8718 34.836 15.1228 34.836H15.1093C14.3543 34.8433 13.748 35.4613 13.7554 36.2163L13.8091 41.7691L9.44162 35.4447C9.27601 35.2047 9.03802 35.024 8.76241 34.9289C8.48679 34.8338 8.18799 34.8293 7.90963 34.916C7.63128 35.0028 7.38796 35.1763 7.21521 35.4112C7.04246 35.646 6.94932 35.93 6.9494 36.2216V46.0469C6.9494 46.8019 7.56157 47.4141 8.31659 47.4141C9.07171 47.4141 9.68378 46.8019 9.68378 46.0469V40.6074L13.8354 46.6192C14.2318 47.1916 14.8949 47.4345 15.5252 47.2377C16.1671 47.0372 16.5817 46.4396 16.5817 45.7153V45.7021L16.4896 36.1899ZM24.0114 37.5704C24.7664 37.5704 25.3785 36.9582 25.3785 36.2032C25.3785 35.4482 24.7664 34.836 24.0114 34.836H19.8636C19.1085 34.836 18.4964 35.4482 18.4964 36.2032V46.0469C18.4964 46.8019 19.1085 47.4141 19.8636 47.4141H24.0114C24.7664 47.4141 25.3785 46.8019 25.3785 46.0469C25.3785 45.2919 24.7664 44.6797 24.0114 44.6797H21.2308V42.4922H23.7055C24.4606 42.4922 25.0727 41.8802 25.0727 41.1251C25.0727 40.3699 24.4606 39.7579 23.7055 39.7579H21.2308V37.5704H24.0114ZM39.2397 34.8804C38.4991 34.7334 37.7793 35.2138 37.6319 35.9545L36.5968 41.1555L34.9472 35.8007C34.7249 35.0791 33.9597 34.6741 33.2381 34.8966C32.7522 35.0463 32.4109 35.4426 32.307 35.9056L30.6817 41.1567L29.6494 35.9379C29.5029 35.1971 28.7834 34.7155 28.0429 34.862C27.3022 35.0085 26.8204 35.7278 26.967 36.4685L28.8848 46.1644C28.8978 46.2299 28.9155 46.2943 28.9378 46.3573C29.0479 46.6664 29.251 46.9339 29.519 47.1231C29.7871 47.3123 30.1071 47.414 30.4353 47.4142H30.4464C30.7829 47.4117 31.1098 47.3025 31.3803 47.1024C31.6508 46.9023 31.8509 46.6216 31.9518 46.3007L33.6401 40.8463L35.3207 46.3018C35.4224 46.6242 35.6241 46.9059 35.8967 47.1059C36.1692 47.306 36.4985 47.414 36.8366 47.4142H36.8473C37.5233 47.4096 38.1237 46.9767 38.3413 46.3367C38.3606 46.28 38.3762 46.222 38.3879 46.1633L40.3135 36.4883C40.4611 35.7476 39.9803 35.0277 39.2397 34.8804Z" fill="#5E54AC"/>
<path d="M39.2397 34.8804C38.499 34.7334 37.7793 35.2138 37.6319 35.9545L36.5968 41.1555L34.9472 35.8007C34.7248 35.0791 33.9597 34.6741 33.2381 34.8966C32.7522 35.0463 32.4109 35.4426 32.307 35.9056L30.6817 41.1567L29.6494 35.9379C29.5336 35.3522 29.0592 34.9301 28.4999 34.8506V44.2182L28.8849 46.1644C28.8979 46.2299 28.9156 46.2943 28.9379 46.3573C29.048 46.6664 29.2511 46.9339 29.5191 47.1231C29.7872 47.3123 30.1073 47.414 30.4354 47.4142H30.4465C30.783 47.4117 31.1099 47.3025 31.3804 47.1024C31.6509 46.9023 31.851 46.6216 31.9519 46.3007L33.6402 40.8463L35.3208 46.3018C35.4225 46.6242 35.6242 46.9059 35.8968 47.1059C36.1693 47.306 36.4986 47.414 36.8367 47.4142H36.8474C37.5234 47.4096 38.1238 46.9767 38.3414 46.3367C38.3607 46.28 38.3763 46.222 38.388 46.1633L40.3136 36.4883C40.4611 35.7476 39.9803 35.0277 39.2397 34.8804ZM47.2338 39.92C46.0483 39.4827 44.943 39.0069 44.5792 38.848C44.3792 38.6761 44.3865 38.4427 44.4007 38.3442C44.4218 38.1964 44.5313 37.8346 45.0877 37.6671C46.4151 37.2671 47.6595 38.2591 47.6718 38.2691L47.663 38.2618L47.6642 38.2604C47.9104 38.4686 48.2225 38.5827 48.5449 38.5824C49.3 38.5824 49.9121 37.9702 49.9121 37.2152C49.9121 36.7772 49.7053 36.3882 49.3849 36.138C49.0684 35.8851 46.9021 34.2644 44.2991 35.0488C42.8886 35.4738 41.8905 36.5875 41.6942 37.9556C41.5095 39.2426 42.0674 40.4806 43.1503 41.1867C43.2108 41.2261 43.2741 41.2607 43.34 41.29C43.3971 41.3155 44.7567 41.9208 46.2875 42.4854C46.5991 42.6003 47.6067 43.0256 47.491 43.6732C47.4026 44.1679 46.7856 44.6797 45.906 44.6797C44.9655 44.6797 44.062 44.3022 43.4887 43.6698C42.9816 43.1103 42.1172 43.0677 41.5576 43.5747C40.998 44.0818 40.9555 44.9464 41.4626 45.5059C42.5616 46.7186 44.1811 47.4141 45.906 47.4141C48.0468 47.4141 49.8455 46.043 50.1828 44.1539C50.4375 42.7268 49.7966 40.8653 47.2338 39.92Z" fill="#453D81"/>
</svg>
