<svg width="47" height="56" viewBox="0 0 47 56" fill="none" xmlns="http://www.w3.org/2000/svg">
<path d="M7.68436 43.8157C4.77291 43.8157 2.4126 46.176 2.4126 49.0875C2.4126 51.9987 4.77291 54.3594 7.68436 54.3594H44.5875V43.8157H7.68436Z" fill="#F5F5FF"/>
<path d="M23.5 43.8157H44.5875V54.3594H23.5V43.8157Z" fill="#E6E6FF"/>
<path d="M44.5875 0H7.68435C3.87285 0 0.771851 3.10089 0.771851 6.91239V49.0875C0.771851 52.8991 3.87285 56 7.68424 56H44.5874C45.4935 56 46.228 55.2654 46.228 54.3594V1.64062C46.2281 0.734562 45.4936 0 44.5875 0ZM42.9468 52.7188H7.68435C5.68213 52.7188 4.0531 51.0897 4.0531 49.0875C4.0531 47.0853 5.68213 45.4562 7.68424 45.4562H42.9467L42.9468 52.7188Z" fill="#FF6C6C"/>
<path d="M44.5875 0H23.5V45.4562H42.9469V52.7188H23.5V56H44.5875C45.4937 56 46.2281 55.2654 46.2281 54.3594V1.64062C46.2281 0.734562 45.4937 0 44.5875 0Z" fill="#FF3636"/>
<path d="M35.6039 19.3377C35.5094 19.0465 35.3352 18.7877 35.1012 18.5904C34.8672 18.3931 34.5826 18.2652 34.2797 18.2212L27.8477 17.2867L24.9713 11.4582C24.8358 11.1837 24.6262 10.9525 24.3662 10.7909C24.1062 10.6293 23.8062 10.5437 23.5 10.5437C23.1939 10.5437 22.8939 10.6294 22.6339 10.791C22.3739 10.9526 22.1643 11.1838 22.0289 11.4583L19.1526 17.2867L12.7203 18.2212C12.4173 18.2651 12.1327 18.393 11.8987 18.5903C11.6647 18.7876 11.4905 19.0465 11.396 19.3377C11.3013 19.6288 11.29 19.9406 11.3634 20.2379C11.4368 20.5351 11.5918 20.8058 11.8111 21.0195L16.4656 25.5564L15.3666 31.9623C15.3148 32.264 15.3484 32.5742 15.4637 32.8579C15.579 33.1415 15.7714 33.3872 16.0191 33.5671C16.2668 33.7471 16.5599 33.8542 16.8653 33.8762C17.1706 33.8982 17.4761 33.8344 17.747 33.6918L23.5002 30.6672L29.2532 33.6919C29.4886 33.8157 29.7505 33.8804 30.0164 33.8804H30.0231C30.9274 33.878 31.6594 33.1444 31.6594 32.2398C31.6595 32.1164 31.6458 31.9935 31.6184 31.8732L30.5352 25.5564L35.189 21.0194C35.4082 20.8057 35.5632 20.535 35.6365 20.2378C35.7099 19.9406 35.6986 19.6288 35.6039 19.3377Z" fill="#FFE76E"/>
<path d="M29.2531 33.6919C29.4885 33.8157 29.7504 33.8804 30.0163 33.8804H30.023C30.9273 33.878 31.6594 33.1444 31.6594 32.2398C31.6595 32.1164 31.6457 31.9935 31.6184 31.8732L30.5351 25.5564L35.1889 21.0194C35.4082 20.8058 35.5633 20.535 35.6366 20.2378C35.71 19.9406 35.6987 19.6288 35.604 19.3377C35.5094 19.0466 35.3353 18.7877 35.1013 18.5904C34.8672 18.3931 34.5827 18.2652 34.2798 18.2212L27.8478 17.2867L24.9713 11.4582C24.8358 11.1837 24.6262 10.9525 24.3662 10.7909C24.1062 10.6293 23.8061 10.5437 23.5 10.5437V30.6672H23.5001L29.2531 33.6919Z" fill="#FFB640"/>
</svg>
