<svg width="57" height="56" viewBox="0 0 57 56" fill="none" xmlns="http://www.w3.org/2000/svg">
<path d="M11.897 36.0497C10.8798 36.1483 9.86261 36.2466 8.81261 36.3123C7.72969 36.3779 6.6471 36.4107 5.53137 36.4107C4.61251 36.4107 3.89075 37.1327 3.89075 38.0513V53.9654H13.7345V37.6904C13.7345 36.6733 12.8156 35.9186 11.897 36.0497Z" fill="#FF641A"/>
<path d="M50.2219 14.8858C49.5001 15.7061 48.8438 16.4936 48.1875 17.2155C46.9406 18.6593 45.628 20.0045 43.8233 21.678C43.4624 21.9735 43.2656 22.4326 43.2656 22.8921V53.9655H53.1094V15.9358C53.1094 14.4264 51.2061 13.7374 50.2219 14.8858Z" fill="#FFD400"/>
<path d="M37.4249 26.6329C36.6619 27.1631 35.8735 27.6559 35.0626 28.1094C33.7499 28.9297 32.4376 29.6843 31.0595 30.3735C30.5016 30.6359 30.1407 31.1938 30.1407 31.8172V53.9656H39.9844V28.0109C39.9844 26.6657 38.5079 25.9109 37.4249 26.6329Z" fill="#FDBF00"/>
<path d="M56.5006 1.64062V8.20311C56.5006 9.12175 55.7788 9.84373 54.86 9.84373C53.9411 9.84373 53.2193 9.12175 53.2193 8.20311V7.02186L46.7443 14.2843C41.6256 20.0592 35.4241 24.6202 28.5006 27.7045C21.5377 30.8399 13.9885 32.4616 6.35224 32.4623C4.84276 32.4623 3.52873 32.3966 1.98644 32.2654C1.10061 32.1997 0.411551 31.4123 0.509988 30.4937C0.575504 29.6076 1.36289 28.8857 2.28175 29.0171C11.4692 29.8046 20.396 28.0328 28.5005 24.0953C34.4396 21.2078 39.8208 17.1718 44.2833 12.1186L52.1364 3.28124H48.2975C47.3786 3.28124 46.6568 2.55926 46.6568 1.64062C46.6568 0.721764 47.3786 0 48.2975 0H54.86C55.7788 0 56.5006 0.721764 56.5006 1.64062Z" fill="#54E360"/>
<path d="M24.6611 33.0639C23.775 33.392 22.8564 33.6874 21.9376 33.9498C20.7235 34.3435 19.5094 34.6389 18.2954 34.9341C17.5406 35.1312 17.0157 35.7873 17.0157 36.5422V53.9656H26.8594V34.606C26.8594 33.4905 25.7437 32.7029 24.6611 33.0639Z" fill="#FF9F00"/>
<path d="M13.7345 37.6904V53.9654H8.81262V36.3123C9.86262 36.2466 10.8798 36.1483 11.897 36.0497C12.8156 35.9186 13.7345 36.6733 13.7345 37.6904Z" fill="#FF4B00"/>
<path d="M26.8594 34.606V53.9655H21.9376V33.9498C22.8564 33.6874 23.7751 33.3921 24.6611 33.0639C25.7437 32.7029 26.8594 33.4905 26.8594 34.606Z" fill="#F77E00"/>
<path d="M39.9844 28.0109V53.9656H35.0626V28.1094C35.8829 27.6501 36.6704 27.1578 37.4249 26.6329C38.5079 25.9109 39.9844 26.6657 39.9844 28.0109Z" fill="#FF9F00"/>
<path d="M53.1094 15.9358V53.9655H48.1875V17.2155C48.8437 16.4936 49.5001 15.7061 50.2219 14.8858C51.2061 13.7374 53.1094 14.4264 53.1094 15.9358Z" fill="#FDBF00"/>
<path d="M56.5 1.64062V8.20311C56.5 9.12175 55.7782 9.84373 54.8594 9.84373C53.9405 9.84373 53.2188 9.12175 53.2188 8.20311V7.02186L46.7438 14.2843C41.625 20.0592 35.4235 24.6202 28.5001 27.7045V24.0953C34.4391 21.2078 39.8203 17.1718 44.2828 12.1186L52.1358 3.28124H48.2969C47.378 3.28124 46.6563 2.55926 46.6563 1.64062C46.6563 0.721764 47.378 0 48.2969 0H54.8594C55.7782 0 56.5 0.721764 56.5 1.64062Z" fill="#00CC71"/>
<path d="M56.5 54.3594C56.5 55.278 55.7782 56 54.8594 56H2.14074C1.22189 56 0.500122 55.278 0.500122 54.3594C0.500122 53.4405 1.22189 52.7188 2.14074 52.7188H54.8594C55.7782 52.7188 56.5 53.4405 56.5 54.3594Z" fill="#53433F"/>
<path d="M56.5 54.3594C56.5 55.278 55.7782 56 54.8594 56H28.5001V52.7188H54.8594C55.7782 52.7188 56.5 53.4405 56.5 54.3594Z" fill="#3E322E"/>
</svg>
