<svg width="20" height="20" viewBox="0 0 20 20" fill="none" xmlns="http://www.w3.org/2000/svg">
<g clip-path="url(#clip0_391_2108)">
<path d="M15.8333 6.66667V13.3333C15.8333 13.7942 15.4608 14.1667 14.9999 14.1667C14.5391 14.1667 14.1666 13.7942 14.1666 13.3333V6.66667C14.1666 6.20583 14.5391 5.83333 14.9999 5.83333C15.4608 5.83333 15.8333 6.20583 15.8333 6.66667ZM11.6666 0C11.2058 0 10.8333 0.3725 10.8333 0.833333V19.1667C10.8333 19.6275 11.2058 20 11.6666 20C12.1274 20 12.4999 19.6275 12.4999 19.1667V0.833333C12.4999 0.3725 12.1274 0 11.6666 0ZM18.3333 3.33333C17.8724 3.33333 17.4999 3.70583 17.4999 4.16667V15.8333C17.4999 16.2942 17.8724 16.6667 18.3333 16.6667C18.7941 16.6667 19.1666 16.2942 19.1666 15.8333V4.16667C19.1666 3.70583 18.7941 3.33333 18.3333 3.33333ZM8.33325 3.33333C7.87242 3.33333 7.49992 3.70583 7.49992 4.16667V15.8333C7.49992 16.2942 7.87242 16.6667 8.33325 16.6667C8.79409 16.6667 9.16659 16.2942 9.16659 15.8333V4.16667C9.16659 3.70583 8.79409 3.33333 8.33325 3.33333ZM4.99992 5.83333C4.53909 5.83333 4.16659 6.20583 4.16659 6.66667V13.3333C4.16659 13.7942 4.53909 14.1667 4.99992 14.1667C5.46075 14.1667 5.83325 13.7942 5.83325 13.3333V6.66667C5.83325 6.20583 5.46075 5.83333 4.99992 5.83333ZM1.66659 7.5C1.20575 7.5 0.833252 7.8725 0.833252 8.33333V11.6667C0.833252 12.1275 1.20575 12.5 1.66659 12.5C2.12742 12.5 2.49992 12.1275 2.49992 11.6667V8.33333C2.49992 7.8725 2.12742 7.5 1.66659 7.5Z" fill="#919191"/>
</g>
<defs>
<clipPath id="clip0_391_2108">
<rect width="20" height="20" fill="white"/>
</clipPath>
</defs>
</svg>
