<svg width="20" height="20" viewBox="0 0 20 20" fill="none" xmlns="http://www.w3.org/2000/svg">
<path d="M19.0858 5.4484C18.5225 5.16673 17.8583 5.2259 17.355 5.60506C17.3225 5.62923 17.2917 5.65673 17.2633 5.68506L15.7992 7.16256C15.6233 5.02506 13.8483 3.33423 11.6667 3.33423H4.16667C1.86917 3.3334 0 5.20256 0 7.50006V12.5001C0 14.7976 1.86917 16.6667 4.16667 16.6667H11.6667C13.8575 16.6667 15.64 14.9609 15.8017 12.8109L17.265 14.2726C17.2933 14.3001 17.3225 14.3251 17.3542 14.3492C17.6475 14.5692 17.9942 14.6809 18.3442 14.6809C18.5967 14.6809 18.8492 14.6234 19.0858 14.5051C19.65 14.2234 20 13.6559 20 13.0267V6.9284C20 6.29756 19.65 5.73006 19.0858 5.4484ZM11.6667 15.0001H4.16667C2.78833 15.0001 1.66667 13.8784 1.66667 12.5001V7.50006C1.66667 6.12173 2.78833 5.00006 4.16667 5.00006H11.6667C13.045 5.00006 14.1667 6.12173 14.1667 7.50006V12.5001C14.1667 13.8784 13.045 15.0001 11.6667 15.0001ZM15.8333 10.4859V9.49506L18.3333 6.97173L18.3542 13.0034L15.8333 10.4851V10.4859Z" fill="#919191"/>
</svg>
