<svg width="33" height="32" viewBox="0 0 33 32" fill="none" xmlns="http://www.w3.org/2000/svg">
<path d="M29.9297 23.5742C24.9743 21.1754 24.1845 17.4717 24.1493 17.197C24.1068 16.8642 24.0585 16.6026 24.4257 16.2641C24.7797 15.937 26.3503 14.965 26.786 14.6608C27.5063 14.1572 27.8235 13.6543 27.5897 13.0362C27.4262 12.6086 27.028 12.4475 26.6086 12.4475C26.4763 12.4479 26.3444 12.4627 26.2153 12.4917C25.4239 12.6633 24.6554 13.0599 24.2106 13.167C24.1572 13.1807 24.1023 13.1882 24.0471 13.189C23.81 13.189 23.7201 13.0835 23.743 12.7982C23.7986 11.9332 23.9163 10.2449 23.7798 8.66779C23.5925 6.49791 22.8927 5.42279 22.0628 4.47191C21.6614 4.01079 19.7973 2.02979 16.1999 2.02979C12.6025 2.02979 10.7408 4.01079 10.3419 4.46622C9.50959 5.4171 8.81053 6.49222 8.62497 8.6621C8.4884 10.2392 8.61109 11.9267 8.66178 12.7925C8.67815 13.064 8.59472 13.1833 8.35765 13.1833C8.30248 13.1824 8.24761 13.175 8.19415 13.1613C7.75022 13.0542 6.98165 12.6577 6.19022 12.486C6.06113 12.457 5.92926 12.4422 5.79697 12.4418C5.3759 12.4418 4.9794 12.6053 4.81584 13.0305C4.58203 13.6487 4.89759 14.1515 5.62034 14.6551C6.05609 14.9592 7.62672 15.9305 7.98072 16.2584C8.34703 16.5969 8.29959 16.8585 8.25709 17.1913C8.22197 17.4701 7.43134 21.1738 2.47672 23.5685C2.18647 23.7091 1.69265 24.0067 2.5634 24.4875C3.9304 25.2429 4.8404 25.162 5.54759 25.6173C6.14772 26.0041 5.79284 26.838 6.22947 27.1389C6.76578 27.5093 8.35109 27.1127 10.3992 27.7889C12.1161 28.3547 13.1593 29.9531 16.204 29.9531C19.2487 29.9531 20.3222 28.3474 22.0089 27.7889C24.0529 27.1128 25.6415 27.5093 26.1786 27.1389C26.6143 26.838 26.2603 26.0041 26.8605 25.6173C27.5677 25.162 28.4768 25.2429 29.8447 24.4875C30.7137 24.0124 30.2199 23.7148 29.9297 23.5742Z" fill="white"/>
<path d="M32.0856 23.2923C31.8632 22.6873 31.4397 22.3635 30.9573 22.0954C30.8777 22.0486 30.7959 22.0058 30.7121 21.967C30.5682 21.8926 30.421 21.8206 30.2746 21.7446C28.7711 20.9475 27.597 19.9419 26.7827 18.7498C26.5515 18.4142 26.3509 18.0585 26.1834 17.687C26.1139 17.4883 26.1171 17.3755 26.167 17.2725C26.2165 17.1931 26.2819 17.1249 26.3591 17.0721C26.6175 16.9013 26.884 16.728 27.0647 16.611C27.3868 16.4025 27.642 16.2374 27.8063 16.1205C28.4235 15.6888 28.8552 15.2301 29.125 14.7175C29.3133 14.3633 29.423 13.9727 29.4469 13.5724C29.4707 13.172 29.4081 12.7712 29.2632 12.3971C28.8544 11.3212 27.8381 10.6532 26.6068 10.6532C26.3471 10.653 26.0881 10.6804 25.8342 10.735C25.7666 10.7494 25.6993 10.7652 25.6323 10.7824C25.6437 10.0466 25.6274 9.26984 25.562 8.5054C25.3298 5.81796 24.3887 4.40927 23.4076 3.2859C22.7794 2.58195 22.0394 1.9864 21.2173 1.52321C19.7285 0.672899 18.0402 0.241211 16.1998 0.241211C14.3593 0.241211 12.6792 0.672899 11.1888 1.52321C10.3647 1.98658 9.62321 2.58333 8.99434 3.28921C8.01321 4.41259 7.07221 5.82371 6.83996 8.50871C6.77452 9.27315 6.75821 10.054 6.76884 10.7857C6.70212 10.7686 6.63506 10.7527 6.56771 10.7383C6.3138 10.6837 6.0548 10.6563 5.79509 10.6565C4.56296 10.6565 3.54509 11.3245 3.1379 12.4005C2.99235 12.7746 2.92907 13.1757 2.95236 13.5765C2.97564 13.9773 3.08494 14.3684 3.27284 14.7232C3.54346 15.2358 3.97515 15.6945 4.5924 16.1262C4.7559 16.2406 5.01184 16.4058 5.33396 16.6168C5.50809 16.7296 5.7624 16.8948 6.01171 17.0599C6.09897 17.1163 6.17314 17.1907 6.22921 17.2782C6.28152 17.3853 6.28315 17.5006 6.20552 17.7131C6.04032 18.0769 5.84304 18.4252 5.61602 18.754C4.81971 19.919 3.67996 20.9066 2.22465 21.6973C1.45365 22.1061 0.652399 22.3791 0.313962 23.299C0.0588994 23.9931 0.225649 24.7829 0.874024 25.4484C1.11198 25.6968 1.38795 25.9057 1.69159 26.0673C2.32341 26.4146 2.99525 26.6834 3.69221 26.8678C3.83603 26.9049 3.97257 26.966 4.09609 27.0485C4.33234 27.2553 4.29884 27.5668 4.61359 28.023C4.7716 28.2588 4.97237 28.4629 5.20552 28.6248C5.86615 29.081 6.60852 29.1096 7.39502 29.1398C8.10553 29.1668 8.91084 29.1979 9.83065 29.5012C10.2116 29.6271 10.6073 29.8708 11.066 30.1553C12.1673 30.8323 13.675 31.7586 16.198 31.7586C18.7211 31.7586 20.2393 30.8273 21.3488 30.148C21.8042 29.8683 22.1975 29.6271 22.5678 29.5045C23.4876 29.2004 24.293 29.1701 25.0035 29.1431C25.79 29.1129 26.5323 29.0843 27.193 28.6281C27.4691 28.4355 27.6991 28.1843 27.8666 27.8923C28.0931 27.5072 28.0874 27.2382 28.3 27.0501C28.4158 26.9716 28.5441 26.913 28.6793 26.8768C29.3858 26.6918 30.0668 26.4206 30.707 26.0691C31.0296 25.896 31.32 25.6687 31.5655 25.397L31.5736 25.3872C32.1821 24.7362 32.335 23.9693 32.0856 23.2923ZM29.843 24.4975C28.4751 25.2529 27.566 25.172 26.8588 25.6273C26.2578 26.0141 26.6135 26.848 26.1769 27.1489C25.6406 27.5193 24.0553 27.1227 22.0072 27.7989C20.3181 28.3573 19.2405 29.963 16.2023 29.963C13.1641 29.963 12.112 28.3605 10.395 27.7948C8.35102 27.1186 6.76246 27.5151 6.22534 27.1448C5.78959 26.8439 6.14359 26.01 5.54346 25.6232C4.83546 25.1678 3.92627 25.2488 2.55927 24.4974C1.68852 24.0166 2.1824 23.7191 2.47259 23.5785C7.42715 21.1796 8.21777 17.476 8.25296 17.2013C8.29546 16.8685 8.3429 16.6069 7.97665 16.2684C7.62265 15.9413 6.05202 14.9693 5.61627 14.6651C4.89515 14.1615 4.57796 13.6586 4.81177 13.0405C4.97527 12.6129 5.37427 12.4518 5.7929 12.4518C5.92521 12.4523 6.05709 12.467 6.18615 12.496C6.97759 12.6676 7.74609 13.0642 8.19009 13.1713C8.24352 13.185 8.2984 13.1924 8.35359 13.1933C8.59071 13.1933 8.67409 13.074 8.65771 12.8025C8.60702 11.9367 8.4844 10.2492 8.6209 8.67208C8.80815 6.50221 9.50715 5.42709 10.3378 4.47621C10.7368 4.01921 12.6115 2.03815 16.1967 2.03815C19.7818 2.03815 21.6615 4.01102 22.0605 4.4664C22.892 5.41727 23.5918 6.4924 23.7774 8.66227C23.914 10.2394 23.7962 11.9277 23.7406 12.7927C23.7218 13.078 23.8076 13.1835 24.0447 13.1835C24.0999 13.1826 24.1548 13.1752 24.2082 13.1615C24.653 13.0543 25.4215 12.6578 26.213 12.4861C26.342 12.4572 26.4739 12.4424 26.6062 12.442C27.0273 12.442 27.4238 12.6055 27.5873 13.0307C27.8211 13.6488 27.5056 14.1516 26.7836 14.6553C26.3479 14.9594 24.7773 15.9307 24.4233 16.2586C24.0561 16.5971 24.1044 16.8587 24.1469 17.1915C24.182 17.4703 24.9718 21.174 29.9273 23.5686C30.2199 23.715 30.7137 24.0126 29.843 24.4975Z" fill="black"/>
</svg>
