<?xml version="1.0" encoding="utf-8"?>
<!-- Generator: Adobe Illustrator 22.1.0, SVG Export Plug-In . SVG Version: 6.00 Build 0)  -->
<svg version="1.1" xmlns="http://www.w3.org/2000/svg" xmlns:xlink="http://www.w3.org/1999/xlink" x="0px" y="0px"
	 viewBox="0 0 1280 1280" style="enable-background:new 0 0 1280 1280;" xml:space="preserve">
<style type="text/css">
	.st0{display:none;}
	.st1{display:inline;fill:#F5BF6A;}
	.st2{display:inline;fill:#F5BD66;}
	.st3{display:inline;fill:#F5BD65;}
	.st4{display:inline;fill:#F5BE67;}
	.st5{display:inline;fill:#F5BE68;}
	.st6{fill:#3C3FAA;}
	.st7{fill:#60AAAB;}
</style>
<g id="Layer_2">
	<g class="st0">
		<path class="st1" d="M642.5,725.6h18.1l7.5,1.9l5,3.8l3.1,3.8l1.9,5.6l0.6,4.4v8.8l-1.9,8.1l-2.5,3.8l-4.4,3.8l-5,1.9l-2.5,0.6
			h-21.9v-37.5l0.6-8.1L642.5,725.6z M647.5,731.9v34.4h10l7.5-1.2l4.4-3.1l2.5-5.6l0.6-1.9V745l-1.9-6.9l-0.6-1.2h-1.2V735
			l-2.5-1.9l-4.4-1.2H647.5z"/>
		<path class="st2" d="M907.5,725.6h21.2l5.6,1.2l5,3.8l2.5,5v5l-1.9,5l-3.1,3.1h-1.2l0.6,1.9l3.1,3.1l1.2,2.5l1.2,8.8v6.9h-5.6
			l-0.6-0.6l-1.2-14.4l-1.9-1.9v-1.2l-4.4-0.6h-14.4l-0.6,1.2v16.2l-0.6,1.2h-5.6v-45.6L907.5,725.6z M913.8,731.9l-0.6,2.5v13.1
			h14.4l5-1.9l3.1-4.4l-0.6-3.8l-0.6-2.5h-1.2l-0.6-1.9l-5-1.2H913.8z"/>
		<path class="st1" d="M607.5,725l10,1.2l5,2.5v1.2l2.5,1.2l3.8,5l1.9,5l0.6,3.8v9.4l-1.9,6.2l-3.1,5l-5,4.4l-6.2,2.5h-10l-7.5-3.1
			l-3.8-3.1L590,760l-1.9-6.9v-10.6l2.5-6.9l2.5-3.8l5-4.4l5.6-1.9L607.5,725z M611.2,730.6l-5.6,0.6l-4.4,1.9v1.2l-2.5,1.2
			l-3.1,4.4l-0.6,3.1v12.5l2.5,5.6h1.2l1.2,2.5l4.4,2.5l4.4,1.2l5-0.6l4.4-1.9l3.1-2.5l1.9-2.5l1.9-6.2V745l-1.9-6.2l-3.8-5
			l-4.4-2.5L611.2,730.6z"/>
		<path class="st3" d="M867.5,725.6h26.9l2.5,0.6v5l-0.6,0.6l-25,0.6v13.1h22.5v5l-3.1,0.6l-19.4,0.6v13.8l26.2,0.6v5.6H865v-45.6
			L867.5,725.6z"/>
		<path class="st4" d="M546.2,725.6h21.9l6.2,2.5l4.4,3.8l1.9,4.4v6.9l-1.9,5l-3.1,3.1l-3.1,1.9l-5,1.2h-15.6v16.2l-0.6,0.6h-5.6
			v-45L546.2,725.6z M552.5,731.9l-0.6,0.6v15l0.6,1.2l15-0.6l4.4-1.9l1.2-1.2l1.2-3.8l-0.6-5l-2.5-3.1l-2.5-1.2H552.5z"/>
		<path class="st3" d="M966.9,725l8.1,0.6l7.5,3.8l2.5,4.4l0.6,6.2h-4.4l-1.9-3.1l-2.5-3.8l-3.1-1.9h-9.4l-3.8,1.9l-1.9,2.5l0.6,5.6
			l3.8,2.5l16.2,4.4l3.8,1.9l3.1,3.8l0.6,1.2v8.1l-1.9,3.8l-4.4,3.8l-5.6,1.9h-10l-6.9-2.5l-4.4-3.8l-1.9-3.8l-0.6-4.4l0.6-1.2
			l5,0.6l2.5,6.2l3.8,2.5l4.4,1.2l6.9-0.6l3.8-1.9h1.2l1.2-3.8l-0.6-4.4l-1.9-2.5l-8.1-2.5l-10-2.5l-3.8-2.5l-2.5-3.1l-1.2-4.4
			l0.6-6.2l1.9-3.1h1.2v-1.2l6.2-3.1L966.9,725z"/>
		<path class="st3" d="M792.5,725.6h10.6l6.2,3.1l3.1,3.1l1.9,5.6v2.5h-5.6l-1.9-5.6l-3.8-2.5l-1.9-0.6h-7.5l-5,2.5l-1.2,2.5
			l0.6,5.6l3.8,2.5l16.2,3.8l3.8,1.9l3.1,3.8l1.2,3.8l-0.6,6.2l-2.5,3.8l-3.8,3.1l-5,1.9h-11.9l-7.5-3.1l-3.1-3.8l-1.9-6.2l0.6-1.9
			h5l2.5,6.2l2.5,1.9l4.4,1.2h7.5l5.6-2.5l1.9-4.4l-0.6-3.1l-2.5-2.5l-6.9-1.9l-10-2.5l-5-3.1l-2.5-3.1l-1.2-3.8v-4.4l2.5-5l5-3.8
			L792.5,725.6z"/>
		<path class="st5" d="M753.8,725.6l3.1,1.2l3.8,9.4l6.9,18.1l5.6,15l-0.6,2.5h-5l-4.4-10.6V760l-20,0.6l-3.8,10l-1.2,1.2h-5.6
			l0.6-3.8l7.5-18.1l6.2-16.2l3.1-6.9L753.8,725.6z M752.5,735l-4.4,12.5l-1.9,5.6l0.6,1.2h12.5l0.6-3.1l-3.8-9.4l-2.5-6.9H752.5z"
			/>
		<path class="st3" d="M705,725h5l6.2,1.2l5.6,3.8l3.8,5l1.2,5.6h-5.6l-3.8-6.2l-3.1-2.5l-1.9-0.6h-8.8l-5,2.5h-1.2l-1.2,2.5
			l-2.5,6.2l-0.6,3.8v6.2l1.2,5l3.1,5.6l3.1,2.5l3.8,1.2h7.5l5.6-3.1l3.1-5l1.2-2.5h5l-0.6,4.4l-3.1,6.2l-5,3.8l-5.6,1.9h-9.4
			l-6.9-2.5l-5-5l-3.8-7.5l-0.6-2.5v-11.9l2.5-6.9l3.1-5l6.2-4.4l2.5-1.2L705,725z"/>
		<path class="st3" d="M841.2,725.6l16.2,0.6v5l-0.6,0.6l-14.4,0.6l-0.6,39.4h-5.6l-0.6-0.6v-39.4h-14.4l-0.6-1.9l0.6-3.8
			L841.2,725.6z"/>
	</g>
</g>
<g id="Layer_1">
	<g>
		<path class="st6" d="M538.1,470h15.6l10.6,1.9l9.4,3.1l5,3.1l1.2,1.2l-0.6,3.1l-0.6,1.2h-1.2v1.2h-4.4l-10.6-2.5H545l-10,2.5
			l-10,4.4l-8.1,5.6l-9.4,8.8l-5.6,6.2l-13.1,16.9l-8.8,11.9l-7.5,10l-10,13.1l-8.1,10.6l-5.6,7.5l-6.2,8.1l-7.5,9.4l-7.5,10
			l0.6,3.8l6.2,9.4l7.5,11.9l8.8,13.8l6.9,10.6l15,23.8l5,8.1l6.9,10.6l6.2,10l7.5,11.9l9.4,15l7.5,11.9l6.9,11.2l6.9,10.6l6.9,8.8
			l6.9,6.9l8.8,6.2l6.9,3.1l6.9,1.9l8.8,0.6l10-1.2l2.5-0.6h5l1.9,1.9v4.4l-3.1,2.5l-8.8,3.8l-11.9,3.1l-11.9,1.2h-8.8l-10.6-1.2
			l-9.4-2.5l-9.4-3.8l-8.8-5l-6.2-5l-6.2-5.6l-4.4-4.4l-7.5-10l-8.8-13.8l-6.9-10.6l-15-23.8l-8.8-13.8l-6.9-10.6l-9.4-15l-9.4-14.4
			l-8.1-13.1l-6.9-10.6l-5.6-8.1l-1.9-3.1v-1.2l-3.1,3.1l-4.4,5l-8.1,6.9l-5.6,3.8l-10.6,4.4l-7.5,1.9h-1.9v14.4h41.9l3.1,1.9
			l2.5,3.1l0.6,1.2v7.5l-4.4,5l-3.1,0.6h-93.8l-3.8-1.9l-2.5-3.1l-0.6-1.2v-6.2l1.9-3.8l3.8-3.1H345v-13.8l-12.5-3.8l-8.8-4.4
			l-7.5-5.6l-7.5-7.5l-5.6-8.1l-4.4-9.4l-2.5-9.4l-0.6-4.4v-45l3.8-3.1h3.8l3.1,2.5l0.6,1.2l0.6,44.4l2.5,10l4.4,8.8l4.4,5.6
			l4.4,4.4l8.8,5.6l8.8,3.1l3.8,0.6h13.8l9.4-2.5l8.1-4.4l6.2-5l1.9-0.6l1.2-2.5l5-6.2l4.4-9.4l1.9-7.5l0.6-43.8l2.5-3.1l1.2-0.6
			h4.4l3.1,3.1v33.1l3.1-2.5l4.4-5.6l6.9-8.8l6.2-8.1l7.5-9.4l6.2-8.1l7.5-9.4l6.9-8.8l8.1-10l8.1-10.6l5.6-6.9l6.2-8.1l7.5-8.8
			l6.2-6.2l9.4-6.9l10.6-5.6l9.4-3.1L538.1,470z"/>
		<path class="st6" d="M594.4,576.9H615l2.5,1.2l2.5,6.9l15,59.4l1.2,3.8l7.5-26.2l12.5-43.1l1.2-1.2l2.5-0.6h17.5l3.1,2.5l4.4,15
			l11.9,41.2l3.1,12.5l0.6,0.6l3.1-11.2L715,595l4.4-15l1.9-2.5l2.5-0.6h18.8l3.1,1.9l0.6,0.6v4.4L740,605l-10.6,36.9l-5.6,18.1
			l-7.5,26.2l-2.5,7.5l-2.5,1.9l-2.5,0.6h-16.2l-3.1-1.9l-4.4-13.1l-8.1-28.1l-6.9-22.5l-1.2-5.6h-1.2l-1.9,7.5l-9.4,31.2l-8.1,26.9
			l-1.9,4.4l-3.8,1.2h-13.8l-5.6-1.2l-2.5-6.2l-7.5-26.9l-8.1-29.4l-8.8-31.9l-4.4-15.6v-5.6L594.4,576.9z"/>
		<path class="st6" d="M785.6,576.9h22.5l3.1,1.2l2.5,5l9.4,25l11.2,29.4l8.8,22.5l8.1,20.6l3.1,8.1l-0.6,4.4l-2.5,2.5l-2.5,0.6
			h-17.5l-3.1-2.5l-5-11.9l-3.1-8.1v-1.9h-46.2l-1.9,6.2l-5,14.4l-1.9,3.1l-2.5,0.6h-19.4l-2.5-2.5v-5l10-26.2l6.2-16.9l9.4-24.4
			l7.5-19.4l8.1-21.9l2.5-2.5L785.6,576.9z M796.9,611.9l-3.1,6.9l-1.9,6.2l-1.9,4.4l-4.4,12.5l-1.2,3.1v3.1h26.2l-1.2-5l-4.4-10.6
			l-3.1-8.8l-2.5-6.2l-1.9-5.6H796.9z"/>
		<path class="st6" d="M488.8,576.9H510l1.9,1.9l0.6,2.5v70l1.2,8.8l3.8,6.2l5.6,4.4l5.6,1.9h8.8l6.9-2.5l5.6-5l2.5-5l0.6-2.5
			l0.6-75.6l1.2-3.8l2.5-1.2h19.4l3.1,2.5v76.9l-1.2,7.5l-3.8,9.4l-4.4,6.9l-7.5,7.5l-8.8,5.6l-8.1,3.1l-11.9,1.9l-9.4-0.6l-7.5-1.9
			l-8.8-3.8l-5.6-4.4l-6.2-5.6l-5.6-7.5l-3.1-6.9l-1.9-7.5l-0.6-4.4v-75l1.9-3.1L488.8,576.9z"/>
		<path class="st6" d="M947.5,576.9h45.6l3.8,1.2l1.2,2.5v18.1l-2.5,3.1h-30V690l-1.2,4.4l-1.9,1.2l-8.8,0.6h-6.2l-6.2-0.6l-1.9-3.1
			v-90.6h-31.2l-2.5-2.5v-20l1.9-1.9L947.5,576.9z"/>
		<path class="st6" d="M316.9,583.1h69.4l0.6,1.9v15l-0.6,10.6l-1.9,6.9l-3.8,6.9l-5.6,6.2l-6.2,4.4l-8.1,3.1l-6.2,1.2h-7.5
			l-7.5-1.9l-8.8-4.4l-6.2-5.6l-4.4-6.9l-2.5-7.5l-0.6-3.1V583.1z"/>
		<path class="st6" d="M870,576.9h20l3.1,2.5v113.1l-2.5,3.1l-3.1,0.6h-15l-3.8-1.2l-1.9-2.5V579.4L870,576.9z"/>
		<path class="st6" d="M345,473.1h12.5l10,3.1l8.1,5.6l5,5.6l3.8,6.2l1.9,6.2v5.6l-18.8,0.6l-1.2,3.1l0.6,3.1l1.9,1.2l17.5,0.6
			l0.6,0.6v7.5l-2.5,0.6l-16.9,0.6l-0.6,0.6v5l1.2,1.2l18.1,0.6l0.6,1.9v5.6l-0.6,0.6l-18.1,0.6l-1.9,2.5l0.6,3.1l1.9,1.9h13.8
			l4.4,1.2v6.9l-0.6,0.6h-16.9l-1.9,0.6l-0.6,4.4l2.5,2.5l17.5,0.6v8.1l-0.6,0.6h-69.4l-0.6-3.1v-5l0.6-0.6l18.1-0.6l2.5-2.5
			l-0.6-3.8l-1.9-1.2l-18.1-0.6l-0.6-1.2v-5.6l0.6-0.6l18.1-0.6l2.5-0.6v-4.4l-3.1-3.1h-17.5l-0.6-0.6v-6.9l0.6-0.6l18.8-0.6
			l1.9-0.6v-3.8l-1.2-2.5l-1.2-0.6h-18.1l-0.6-0.6v-8.1l20-0.6l1.2-2.5l-0.6-3.8l-1.9-1.2l-18.8-0.6l0.6-5.6l0.6-1.9l18.8-0.6
			l1.2-1.9l-0.6-4.4L335,490l-12.5-0.6l1.2-3.1l3.8-4.4l6.2-4.4l8.1-3.8L345,473.1z"/>
	</g>
	<g>
		<path class="st7" d="M525.6,500.6l5.6,0.6l6.9,1.9l8.8,4.4l8.1,6.2l5.6,6.2l4.4,6.9l3.1,6.9l1.9,6.9l0.6,4.4v7.5l-0.6,1.2h-5.6
			l-1.9-14.4l-3.1-8.8l-3.8-6.2l-5.6-6.2l-6.2-4.4l-9.4-4.4l-10-2.5l-0.6-0.6v-3.8L525.6,500.6z"/>
		<path class="st7" d="M523.1,520h4.4l7.5,3.1l5.6,3.8l5.6,6.2l3.8,7.5l1.2,4.4v7.5l-1.2,1.2h-4.4l-1.9-10.6l-1.9-5l-4.4-5.6
			l-4.4-3.1l-9.4-3.8l-1.2-1.2v-3.8L523.1,520z"/>
		<path class="st7" d="M523.1,538.1l4.4,1.9l3.1,3.8l1.2,6.2l-1.2,3.1l-2.5,1.2h-3.8l-1.9-1.2v-14.4L523.1,538.1z"/>
	</g>
	<g>
		<path class="st7" d="M575.9,753.6c-3.8,3.6-9.1,5.4-15.8,5.4c-1.3,0-2.5-0.1-3.7-0.2v18.4h-10.3v-53.3c4.9-0.2,9.9-0.3,14.9-0.3
			c6.5,0,11.5,1.4,15,4.3c3.5,2.9,5.2,6.9,5.2,12.2C581.3,745.6,579.5,750.1,575.9,753.6z M560.4,732.1c-1.3,0-2.7,0-4,0.1v17.9
			c1.3,0.3,2.8,0.4,4.4,0.4c6.6,0,9.9-3.1,9.9-9.4C570.6,735.1,567.2,732.1,560.4,732.1z"/>
		<path class="st7" d="M628.3,770.6c-4.9,5-11,7.6-18.4,7.6c-8,0-14.1-2.4-18.2-7.3c-4-4.6-6-11.1-6-19.5c0-8.6,2.6-15.5,7.7-20.8
			c4.9-5,11-7.6,18.4-7.6c8,0,14,2.4,18.2,7.2c4,4.6,6.1,11.1,6.1,19.5C636,758.4,633.5,765.3,628.3,770.6z M621.6,737.4
			c-2.4-3.4-6-5.1-10.7-5.1c-4.1,0-7.5,1.5-10.1,4.6c-2.7,3.2-4.1,7.7-4.1,13.2c0,5.8,1.2,10.4,3.5,13.6c2.4,3.4,6,5.1,10.6,5.1
			c4.2,0,7.5-1.5,10.1-4.6c2.7-3.2,4.1-7.7,4.1-13.3C625,745.1,623.9,740.6,621.6,737.4z"/>
		<path class="st7" d="M679.7,770.5c-5.2,4.7-12.3,7.1-21.2,7.1c-2.4,0-7.3-0.1-14.9-0.4V724c7-0.3,12.7-0.4,17.2-0.4
			c18,0,27,8.7,27,26.1C687.9,758.6,685.1,765.5,679.7,770.5z M660.1,732.2c-2.5,0-4.6,0.1-6.2,0.2v36c1.6,0.3,3.5,0.4,5.6,0.4
			c5.2,0,9.4-1.5,12.4-4.4c3.3-3.2,4.9-7.8,4.9-13.9C676.8,738.3,671.2,732.2,660.1,732.2z"/>
		<path class="st7" d="M733.4,775.4c-4.3,1.6-8.9,2.4-13.9,2.4c-8.7,0-15.1-2.6-19.3-7.8c-3.5-4.4-5.3-10.3-5.3-17.8
			c0-8.7,2.2-15.7,6.7-20.8c4.7-5.4,11.4-8.1,20-8.1c4,0,7.8,0.5,11.4,1.6l-1.4,9.5c-3.2-1.3-6.7-1.9-10.4-1.9
			c-4.9,0-8.6,1.7-11.2,5.1c-2.5,3.2-3.7,7.5-3.7,12.9c0,12,5.2,18,15.5,18c3.7,0,7.1-0.7,10.1-2.2L733.4,775.4z"/>
		<path class="st7" d="M774.6,777.3l-3.6-10.9h-20.2l-3.7,10.9h-10.3l18.4-53.3h12.1l18.8,53.3H774.6z M762.9,742.3
			c-0.9-2.8-1.6-5.3-2.1-7.4h-0.1c-0.8,3.2-1.5,5.6-2.1,7.4l-5.4,15.9h15.2L762.9,742.3z"/>
		<path class="st7" d="M817,773.2c-3.9,3.3-8.8,4.9-14.9,4.9c-4.7,0-8.8-0.5-12.3-1.4l1.1-9.9c3.7,1.5,7.5,2.3,11.6,2.3
			c6,0,8.9-2.3,8.9-6.9c0-2.2-1.2-4-3.5-5.4c-0.6-0.4-3.2-1.5-7.7-3.4c-7.5-3.1-11.2-7.8-11.2-14.3c0-4.8,1.7-8.7,5.2-11.6
			c3.6-3,8.6-4.5,14.9-4.5c3.2,0,6.4,0.3,9.6,1l-0.9,9c-3.1-1-6.1-1.5-9.2-1.5c-5.8,0-8.8,2.1-8.8,6.4c0,2.1,1.2,3.8,3.5,5.2
			c0.5,0.3,3.1,1.5,7.9,3.5c7.6,3.2,11.4,8,11.4,14.2C822.6,765.9,820.8,770,817,773.2z"/>
		<path class="st7" d="M850.2,732.7v44.6h-10.3v-44.6h-13.8v-8.8H864v8.8H850.2z"/>
		<path class="st7" d="M870.7,777.3v-53.3h29v8.6H881v13.1h17.8v8.4H881v14.4h18.7v8.8H870.7z"/>
		<path class="st7" d="M935.2,777.3l-14.4-22h-0.9v22h-10.3v-53.3c3.7-0.2,8.8-0.3,15.3-0.3c12.9,0,19.4,5,19.4,15
			c0,3.9-1.3,7.2-3.8,9.9c-2.4,2.6-5.5,4.3-9.3,4.9c2,2.6,3.4,4.6,4.3,5.8l12.4,17.9H935.2z M924,732c-1.7,0-3,0.1-4,0.3v15.4
			c1,0.1,2.2,0.2,3.7,0.2c3.1,0,5.5-0.7,7.3-2.2c1.8-1.5,2.7-3.4,2.7-5.9C933.6,734.5,930.4,732,924,732z"/>
		<path class="st7" d="M980.1,773.2c-3.9,3.3-8.8,4.9-14.9,4.9c-4.7,0-8.8-0.5-12.3-1.4l1.1-9.9c3.7,1.5,7.5,2.3,11.6,2.3
			c6,0,8.9-2.3,8.9-6.9c0-2.2-1.2-4-3.5-5.4c-0.6-0.4-3.2-1.5-7.7-3.4c-7.5-3.1-11.2-7.8-11.2-14.3c0-4.8,1.7-8.7,5.2-11.6
			c3.6-3,8.6-4.5,14.9-4.5c3.2,0,6.4,0.3,9.6,1l-0.9,9c-3.1-1-6.1-1.5-9.2-1.5c-5.8,0-8.8,2.1-8.8,6.4c0,2.1,1.2,3.8,3.5,5.2
			c0.5,0.3,3.1,1.5,7.9,3.5c7.6,3.2,11.4,8,11.4,14.2C985.8,765.9,983.9,770,980.1,773.2z"/>
	</g>
</g>
</svg>
