<svg width="33" height="32" viewBox="0 0 33 32" fill="none" xmlns="http://www.w3.org/2000/svg">
<path d="M16.3996 7.78313C11.8625 7.78313 8.18377 11.4626 8.18377 15.9996C8.18377 20.5375 11.8625 24.2154 16.3996 24.2154C20.9375 24.2154 24.6169 20.5375 24.6169 15.9996C24.6169 11.4626 20.9375 7.78313 16.3996 7.78313ZM16.3996 21.3331C13.4546 21.3331 11.0661 18.9453 11.0661 15.9996C11.0661 13.0539 13.4545 10.6661 16.3996 10.6661C19.3453 10.6661 21.7337 13.0539 21.7337 15.9996C21.7337 18.9452 19.3453 21.3331 16.3996 21.3331ZM26.8609 7.45894C26.8609 8.51844 26.0011 9.37825 24.9409 9.37825C23.8808 9.37825 23.0209 8.51844 23.0209 7.45894C23.0209 6.399 23.8807 5.53894 24.9409 5.53894C26.0011 5.53894 26.8609 6.399 26.8609 7.45894ZM31.5601 5.51925C31.151 4.46663 30.604 3.57475 29.715 2.68512C27.9216 0.890437 25.468 0.208187 22.9973 0.0963125C21.2904 0.0174375 20.7455 0 16.3996 0C12.0551 0 11.5103 0.0174375 9.8034 0.0963125C7.32671 0.208438 4.8759 0.894937 3.08584 2.68506C1.28877 4.48212 0.609712 6.92819 0.496087 9.40337C0.418337 11.1102 0.400024 11.6545 0.400024 15.9996C0.400024 20.3447 0.418337 20.8898 0.496087 22.5973C0.610212 25.0811 1.28809 27.5179 3.08571 29.3142C4.88309 31.1102 7.3284 31.7904 9.8034 31.9037C11.5103 31.9817 12.0551 31.9993 16.3996 31.9993C20.7456 31.9993 21.2905 31.9816 22.9973 31.9037C25.4781 31.7901 27.9211 31.1094 29.7149 29.3142C31.5075 27.5203 32.1915 25.067 32.3037 22.5972C32.3817 20.8897 32.4 20.3446 32.4 15.9995C32.4 11.6544 32.3817 11.1102 32.3037 9.40331C32.2264 7.69987 31.9558 6.53725 31.5601 5.51925ZM29.4236 22.465C29.3446 24.2028 28.9409 26.0104 27.6765 27.2764C26.3953 28.5592 24.6146 28.9441 22.8659 29.0238C21.1783 29.1002 20.6729 29.117 16.3996 29.117C12.1278 29.117 11.6225 29.1002 9.93471 29.0238C8.18159 28.9439 6.40365 28.5526 5.12359 27.2766C3.84721 26.0044 3.4544 24.2017 3.37621 22.4649C3.29977 20.7782 3.28302 20.2722 3.28302 15.9995C3.28302 11.7277 3.29984 11.2217 3.37621 9.534C3.45415 7.80419 3.86571 5.98331 5.12334 4.72356C6.39846 3.44631 8.1949 3.0555 9.93484 2.97613C11.6225 2.89906 12.1278 2.88294 16.3996 2.88294C20.6723 2.88294 21.1783 2.89906 22.866 2.97613C24.6181 3.05606 26.399 3.44556 27.6763 4.72331C28.9542 6.00169 29.3444 7.79137 29.4236 9.53412C29.501 11.2217 29.5178 11.7277 29.5178 15.9996C29.5177 20.2722 29.501 20.7782 29.4236 22.465Z" fill="url(#paint0_linear_468_2269)"/>
<defs>
<linearGradient id="paint0_linear_468_2269" x1="3.08577" y1="29.3143" x2="29.715" y2="2.68512" gradientUnits="userSpaceOnUse">
<stop stop-color="#FDD91D"/>
<stop offset="0.05" stop-color="#FDD91D"/>
<stop offset="0.497" stop-color="#EC1C24"/>
<stop offset="0.95" stop-color="#A43A94"/>
<stop offset="1" stop-color="#A43A94"/>
</linearGradient>
</defs>
</svg>
