<svg xmlns="http://www.w3.org/2000/svg" width="48" height="48" fill="none" id="linkedin">
  <path fill="#0077B5" d="M0 24C0 10.745 10.745 0 24 0s24 10.745 24 24-10.745 24-24 24S0 37.255 0 24Z"></path>
  <path fill="#fff" fill-rule="evenodd" d="M17.319 14.823c0 1.569-1.181 2.824-3.078 2.824h-.035c-1.825 0-3.006-1.255-3.006-2.824C11.2 13.22 12.416 12 14.277 12c1.86 0 3.007 1.22 3.042 2.823Zm-.358 5.055V36.22h-5.44V19.878h5.44ZM36.575 36.22v-9.37c0-5.02-2.683-7.356-6.262-7.356-2.888 0-4.18 1.586-4.902 2.699v-2.315h-5.44c.072 1.534 0 16.342 0 16.342h5.44v-9.127c0-.488.035-.975.179-1.325.393-.976 1.288-1.986 2.79-1.986 1.97 0 2.757 1.499 2.757 3.695v8.743h5.438Z" clip-rule="evenodd"></path>
</svg>
