<svg width="32" height="32" viewBox="0 0 32 32" fill="none" xmlns="http://www.w3.org/2000/svg">
<path d="M13.5376 17.4632C13.1056 17.3279 12.649 17.2493 12.173 17.2493C9.62312 17.2493 7.54843 19.324 7.54843 21.8741C7.54843 23.6497 8.55581 25.1926 10.0278 25.9673C10.6696 26.305 11.3987 26.4986 12.173 26.4986C14.6641 26.4986 16.6962 24.517 16.7887 22.0481L16.7976 0H22.299C22.299 0.476938 22.345 0.943 22.4289 1.39594C22.817 3.49213 24.0611 5.29044 25.7849 6.41425C26.9852 7.19694 28.4164 7.65375 29.9529 7.65375V13.1552C27.1003 13.1552 24.4567 12.2426 22.299 10.6938V21.874C22.299 27.4576 17.7566 31.9999 12.173 31.9999C10.0152 31.9999 8.01462 31.3194 6.36987 30.1648C3.75856 28.3315 2.047 25.2999 2.047 21.874C2.047 16.2904 6.58944 11.7478 12.173 11.7478C12.6364 11.7478 13.0906 11.7859 13.5376 11.8468V17.4632Z" fill="black"/>
</svg>
