<svg width="33" height="32" viewBox="0 0 33 32" fill="none" xmlns="http://www.w3.org/2000/svg">
<g clip-path="url(#clip0_419_3177)">
<path d="M25.954 4.67822H7.24597C3.57548 4.67822 0.599976 7.65373 0.599976 11.3242V20.6762C0.599976 24.3467 3.57548 27.3222 7.24597 27.3222H25.954C29.6245 27.3222 32.6 24.3467 32.6 20.6762V11.3242C32.6 7.65373 29.6245 4.67822 25.954 4.67822ZM21.4594 16.4552L12.709 20.6286C12.4758 20.7398 12.2065 20.5698 12.2065 20.3115V11.7039C12.2065 11.4419 12.4829 11.2722 12.7166 11.3906L21.4669 15.8248C21.7271 15.9566 21.7226 16.3297 21.4594 16.4552Z" fill="#F61C0D"/>
</g>
<defs>
<clipPath id="clip0_419_3177">
<rect width="32" height="32" fill="white" transform="translate(0.599976)"/>
</clipPath>
</defs>
</svg>
