<svg width="57" height="56" viewBox="0 0 57 56" fill="none" xmlns="http://www.w3.org/2000/svg">
<path d="M13.625 4.98632V9.91782H2.14062C1.22166 9.91782 0.5 9.19431 0.5 8.27399V4.98632C0.5 2.24528 2.7482 0.0548096 5.42188 0.0548096C8.14553 0.0548096 13.625 2.25777 13.625 4.98632Z" fill="#F4D7AF"/>
<path d="M43.3746 0.0548096H5.42188C8.14553 0.0548096 10.3438 2.25777 10.3438 4.98632V31.2877C10.3438 31.7149 10.5078 32.1425 10.8359 32.4384L12.9359 34.6849L10.8359 36.8219C10.5078 37.1178 10.3438 37.545 10.3438 37.9726V51.2329C10.3438 53.9614 12.542 56.164 15.2656 56.164C17.9888 56.164 23.4688 53.9614 23.4688 51.2329V46.3014H49.9371V6.63015C49.9371 3.01371 46.9839 0.0548096 43.3746 0.0548096Z" fill="#FAECD8"/>
<path d="M49.9371 6.63015V46.3014H30.1402V0.0548096H43.3746C46.9839 0.0548096 49.9371 3.01371 49.9371 6.63015Z" fill="#F4D7AF"/>
<path d="M41.7339 39.6164H35.1714C34.2648 39.6164 33.5308 38.8811 33.5308 37.9726C33.5308 37.0637 34.2648 36.3287 35.1714 36.3287H41.7339C42.641 36.3287 43.3746 37.0637 43.3746 37.9726C43.3746 38.8811 42.641 39.6164 41.7339 39.6164Z" fill="#DABBA6"/>
<path d="M39.5688 11.5616C39.5688 12.4819 38.8137 13.2054 37.9281 13.2054H18.5469C17.6279 13.2054 16.9062 12.4819 16.9062 11.5616C16.9062 10.6412 17.6279 9.91772 18.5469 9.91772H37.9281C38.8137 9.91772 39.5688 10.6412 39.5688 11.5616ZM36.8121 18.1369C36.8121 19.0572 36.0904 19.7807 35.1714 19.7807H18.5469C17.6279 19.7807 16.9062 19.0572 16.9062 18.1369C16.9062 17.2161 17.6279 16.4931 18.5469 16.4931H35.1714C36.0904 16.4931 36.8121 17.2161 36.8121 18.1369ZM36.845 24.7122C36.845 25.6326 36.1229 26.3561 35.2044 26.3561H21.8281C20.9092 26.3561 20.1875 25.6326 20.1875 24.7122C20.1875 23.7915 20.9092 23.0684 21.8281 23.0684H35.2044C36.1229 23.0684 36.845 23.7915 36.845 24.7122Z" fill="#F4D7AF"/>
<path d="M35.1714 19.7807H30.1402V16.4931H35.1714C36.0904 16.4931 36.8121 17.2161 36.8121 18.1369C36.8121 19.0572 36.0904 19.7807 35.1714 19.7807ZM35.2044 26.3561H30.1403V23.0684H35.2044C36.1229 23.0684 36.845 23.7915 36.845 24.7122C36.845 25.6326 36.1229 26.3561 35.2044 26.3561ZM37.9281 13.2054H30.1402V9.91772H37.9281C38.8139 9.91772 39.5688 10.6412 39.5688 11.5616C39.5688 12.4819 38.8139 13.2054 37.9281 13.2054Z" fill="#DABBA6"/>
<path d="M56.4996 44.6575V49.589C56.4996 53.205 53.5464 56.1639 49.9371 56.1639H15.2656C17.9888 56.1639 20.1875 53.9614 20.1875 51.2329V44.6575C20.1875 43.7367 20.9092 43.0137 21.8281 43.0137H26.8594C27.2857 43.0137 27.7122 43.1781 28.0074 43.5064L30.1402 45.6108L32.3828 43.5064C32.6781 43.1781 33.1045 43.0137 33.5308 43.0137H54.8589C55.7779 43.0137 56.4996 43.7367 56.4996 44.6575Z" fill="#F4D7AF"/>
<path d="M56.4996 44.6575V49.589C56.4996 53.205 53.5464 56.1639 49.9371 56.1639H30.1402V45.6109L32.3828 43.5065C32.6781 43.1782 33.1045 43.0138 33.5308 43.0138H54.8589C55.7779 43.0138 56.4996 43.7369 56.4996 44.6576V44.6575Z" fill="#DABBA6"/>
<path d="M54.087 0.191772C44.6636 2.37238 44.0248 3.86257 43.4404 4.08437C40.7581 5.94136 35.1761 9.80689 33.5629 17.8112C32.0701 25.226 35.5397 30.3117 36.8121 31.8835C37.0505 32.1781 37.2368 32.3921 37.2722 32.4289C37.7478 32.9225 38.469 33.0599 39.0744 32.8078C39.1324 32.7842 39.5182 32.6237 40.0933 32.3622C41.8971 31.5415 45.6607 29.6777 47.8159 27.5183C50.1434 25.1857 51.2077 21.2286 50.9783 15.7564C50.6399 7.8001 55.6746 3.30695 55.9928 2.88953C55.9963 2.88481 56.0164 2.86476 56.019 2.86081L54.087 0.191772Z" fill="#714C2F"/>
<path d="M56.2962 0.904079C55.9437 0.263641 55.2067 -0.0655645 54.497 0.0949835C54.3522 0.12797 54.2283 0.159203 54.0873 0.191751L53.7806 0.459696C53.4153 0.779038 44.7623 8.39471 40.2663 17.4019C36.1327 25.6836 36.5959 30.3082 36.812 31.4593V37.9726C36.812 38.8801 37.5469 39.6164 38.4527 39.6164H38.4531C39.3588 39.6164 40.0933 38.8811 40.0933 37.9734V31.2876C40.0933 28.8065 39.5088 26.271 43.2015 18.8723C47.4026 10.4555 55.8523 3.01202 55.9373 2.93805L55.9928 2.88961C55.9963 2.8849 56.0163 2.86485 56.019 2.86134C56.5363 2.3443 56.6486 1.54627 56.2962 0.904189V0.904079Z" fill="#523522"/>
</svg>
