<svg width="57" height="56" viewBox="0 0 57 56" fill="none" xmlns="http://www.w3.org/2000/svg">
<path d="M50.723 34.5903C47.5376 34.5903 44.9462 31.9987 44.9462 28.8133C44.9462 28.0174 45.1821 26.5359 47.2219 22.8765C48.2735 20.99 49.3096 19.4143 49.3531 19.3481C49.5025 19.1213 49.7059 18.9351 49.945 18.8063C50.1841 18.6774 50.4514 18.61 50.723 18.61C50.9946 18.61 51.2619 18.6774 51.501 18.8062C51.7402 18.935 51.9435 19.1212 52.0929 19.348C52.1365 19.4142 53.1726 20.9899 54.2241 22.8764C56.2641 26.5359 56.5 28.0174 56.5 28.8133C56.5 31.9987 53.9085 34.5903 50.723 34.5903Z" fill="#FFE733"/>
<path d="M6.27697 34.5902C3.09153 34.5902 0.5 31.9987 0.5 28.8132C0.5 28.0173 0.735922 26.5358 2.77577 22.8765C3.8273 20.99 4.8633 19.4142 4.90694 19.348C5.05635 19.1212 5.25974 18.9351 5.49886 18.8062C5.73797 18.6774 6.00533 18.61 6.27694 18.61C6.54855 18.6099 6.81591 18.6774 7.05504 18.8062C7.29416 18.935 7.49757 19.1211 7.647 19.3479C7.69053 19.4141 8.72664 20.9899 9.77817 22.8764C11.818 26.5358 12.0539 28.0172 12.0539 28.8131C12.0539 31.9987 9.46241 34.5902 6.27697 34.5902ZM33.1688 30.0886H23.8313C17.958 30.0886 13.1796 25.3102 13.1796 19.437C13.1796 14.7493 17.1808 12.0797 20.7109 9.72447C23.8728 7.61473 26.8594 5.62203 26.8594 2.60229C26.8594 1.69623 27.5939 0.96167 28.5 0.96167C29.4061 0.96167 30.1406 1.69623 30.1406 2.60229C30.1406 5.62203 33.1272 7.61473 36.2892 9.72436C39.8193 12.0796 43.8204 14.7492 43.8204 19.4369C43.8204 25.3102 39.0421 30.0886 33.1688 30.0886Z" fill="#FFF959"/>
<path d="M33.1688 30.0886C39.0421 30.0886 43.8205 25.3102 43.8205 19.437C43.8205 14.7493 39.8194 12.0797 36.2894 9.72447C33.1272 7.61473 30.1406 5.62203 30.1406 2.6023C30.1406 1.69623 29.4061 0.96167 28.5 0.96167V30.0886H33.1688Z" fill="#FFE733"/>
<path d="M53.8978 55.0384H39.6648C38.7587 55.0384 36.3835 54.3038 36.3835 53.3977V34.1323C36.3835 33.2263 37.1181 32.4917 38.0242 32.4917H53.8978C54.8038 32.4917 55.5384 33.2263 55.5384 34.1323V53.3977C55.5384 54.3038 54.8038 55.0384 53.8978 55.0384Z" fill="#4A98F7"/>
<path d="M47.0547 48.689C46.1486 48.689 45.4141 47.9545 45.4141 47.0484V40.923C45.4141 40.0169 46.1486 39.2823 47.0547 39.2823C47.9608 39.2823 48.6953 40.0169 48.6953 40.923V47.0484C48.6953 47.9545 47.9608 48.689 47.0547 48.689Z" fill="#0B0C0D"/>
<path d="M17.3352 55.0384H3.10223C2.19617 55.0384 1.46161 54.3038 1.46161 53.3977V34.1323C1.46161 33.2263 2.19617 32.4917 3.10223 32.4917H18.9758C19.8819 32.4917 20.6165 33.2263 20.6165 34.1323V53.3977C20.6165 54.3038 18.2413 55.0384 17.3352 55.0384Z" fill="#65B1FC"/>
<path d="M9.94531 48.689C9.03925 48.689 8.30469 47.9545 8.30469 47.0484V40.923C8.30469 40.0169 9.03925 39.2823 9.94531 39.2823C10.8514 39.2823 11.5859 40.0169 11.5859 40.923V47.0484C11.5859 47.9545 10.8514 48.689 9.94531 48.689Z" fill="#23272B"/>
<path d="M39.6648 55.0385H33.3153L28.5 51.0646L23.6846 55.0385H17.3352V28.448C17.3352 27.5419 18.0698 26.8074 18.9758 26.8074H38.0241C38.9302 26.8074 39.6648 27.5419 39.6648 28.448V55.0385Z" fill="#4A98F7"/>
<path d="M38.0242 26.8074H28.5V51.0646L33.3153 55.0385H39.6648V28.448C39.6648 27.5418 38.9302 26.8074 38.0242 26.8074Z" fill="#2864F0"/>
<path d="M33.3153 55.0384H23.6846V42.374C23.6846 40.8556 24.2759 39.428 25.3496 38.3543L27.3399 36.3641C27.9807 35.7234 29.0194 35.7234 29.6601 36.3641L31.6503 38.3543C32.1782 38.8821 32.597 39.5088 32.8827 40.1985C33.1684 40.8882 33.3154 41.6275 33.3154 42.374V55.0384H33.3153Z" fill="#23272B"/>
<path d="M33.3153 55.0384V42.374C33.3154 41.6274 33.1683 40.8882 32.8826 40.1985C32.5969 39.5088 32.1781 38.8821 31.6502 38.3542L29.66 36.364C29.5079 36.2115 29.327 36.0905 29.128 36.008C28.9289 35.9256 28.7155 35.8833 28.5 35.8835V55.0384H33.3153Z" fill="#0B0C0D"/>
</svg>
