<svg width="57" height="56" viewBox="0 0 57 56" fill="none" xmlns="http://www.w3.org/2000/svg">
<g clip-path="url(#clip0_246_1178)">
<path d="M13.7344 10.7734H5.42188C4.51505 10.7734 3.78125 10.0396 3.78125 9.13281C3.78125 8.22598 4.51505 7.49219 5.42188 7.49219H13.7344C14.6412 7.49219 15.375 8.22598 15.375 9.13281C15.375 10.0396 14.6412 10.7734 13.7344 10.7734ZM13.7344 23.8984H5.42188C4.51505 23.8984 3.78125 23.1646 3.78125 22.2578C3.78125 21.351 4.51505 20.6172 5.42188 20.6172H13.7344C14.6412 20.6172 15.375 21.351 15.375 22.2578C15.375 23.1646 14.6412 23.8984 13.7344 23.8984ZM10.4531 17.3359H2.14062C1.2338 17.3359 0.5 16.6021 0.5 15.6953C0.5 14.7885 1.2338 14.0547 2.14062 14.0547H10.4531C11.36 14.0547 12.0938 14.7885 12.0938 15.6953C12.0938 16.6021 11.36 17.3359 10.4531 17.3359Z" fill="#19CFFC"/>
<path d="M31.1404 5.58229C29.8363 4.7155 28.1059 4.887 27.0004 5.99245L17.9769 15.0159C16.6952 16.2977 16.6952 18.374 17.9769 19.6558C19.2587 20.9376 21.3351 20.9376 22.6169 19.6558L29.7385 12.5342L34.8346 16.2051L41.8044 12.9651L31.1404 5.58229ZM24.5394 26.5003L3.21132 47.8284C1.92956 49.1102 1.92956 51.1865 3.21132 52.4683C4.49298 53.75 6.56946 53.7501 7.85123 52.4683L26.8594 33.4601L24.5394 26.5003Z" fill="#2864F0"/>
<path d="M53.2188 22.2579H43.2657V15.6954C43.2657 14.4055 42.4854 13.1847 41.2383 12.6675C39.9827 12.1481 38.5694 12.4693 37.6635 13.3764L24.5394 26.5004C23.2577 27.7822 23.2577 29.8586 24.5394 31.1403L32.0632 38.6641L22.8988 47.8286C21.6171 49.1103 21.6171 51.1867 22.8988 52.4685C24.1805 53.7501 26.257 53.7502 27.5387 52.4685L39.0231 40.9841C40.3049 39.7023 40.3049 37.6259 39.0231 36.3442L31.4993 28.8204L36.7032 23.6165V25.5391C36.7032 27.3512 38.1724 28.8204 39.9844 28.8204H53.2188C55.0308 28.8204 56.5 27.3512 56.5 25.5391C56.5 23.7271 55.0308 22.2579 53.2188 22.2579Z" fill="#3389FF"/>
<path d="M48.1875 12.4141C50.9058 12.4141 53.1094 10.2105 53.1094 7.49219C53.1094 4.77391 50.9058 2.57031 48.1875 2.57031C45.4692 2.57031 43.2656 4.77391 43.2656 7.49219C43.2656 10.2105 45.4692 12.4141 48.1875 12.4141Z" fill="#3389FF"/>
</g>
<defs>
<clipPath id="clip0_246_1178">
<rect width="56" height="56" fill="white" transform="translate(0.5)"/>
</clipPath>
</defs>
</svg>
