<svg width="57" height="56" viewBox="0 0 57 56" fill="none" xmlns="http://www.w3.org/2000/svg">
<path d="M37.2864 22.6115H28.5C27.5939 22.6115 26.8594 21.8769 26.8594 20.9708C26.8594 20.0648 27.5939 19.3302 28.5 19.3302H36.6069L40.6707 15.2664C41.3114 14.6257 42.3503 14.6258 42.9909 15.2664C43.6316 15.9071 43.6316 16.9458 42.9909 17.5866L38.4465 22.1309C38.2941 22.2833 38.1133 22.4041 37.9143 22.4866C37.7152 22.5691 37.5019 22.6115 37.2864 22.6115ZM40.6707 40.7336L36.6069 36.6698H28.5C27.5939 36.6698 26.8594 35.9352 26.8594 35.0291C26.8594 34.1231 27.5939 33.3885 28.5 33.3885H37.2864C37.7216 33.3885 38.1389 33.5613 38.4465 33.8691L42.9909 38.4134C43.6316 39.054 43.6316 40.0929 42.9909 40.7336C42.3502 41.3745 41.3112 41.3742 40.6707 40.7336ZM47.8302 29.6407H28.5C27.5939 29.6407 26.8594 28.9061 26.8594 28C26.8594 27.094 27.5939 26.3594 28.5 26.3594H47.8302C48.7362 26.3594 49.4708 27.094 49.4708 28C49.4708 28.9061 48.7363 29.6407 47.8302 29.6407Z" fill="#0075A5"/>
<path d="M44.3156 19.0968C47.1628 19.0968 49.4708 16.7888 49.4708 13.9417C49.4708 11.0945 47.1628 8.7865 44.3156 8.7865C41.4685 8.7865 39.1605 11.0945 39.1605 13.9417C39.1605 16.7888 41.4685 19.0968 44.3156 19.0968Z" fill="#00D7F5"/>
<path d="M49.4708 13.9417C49.4708 16.7842 47.1581 19.0968 44.3155 19.0968C41.473 19.0968 39.1603 16.7842 39.1603 13.9417H49.4708Z" fill="#00A4CC"/>
<path d="M51.3447 33.1552C54.1919 33.1552 56.4999 30.8471 56.4999 28C56.4999 25.1529 54.1919 22.8448 51.3447 22.8448C48.4976 22.8448 46.1896 25.1529 46.1896 28C46.1896 30.8471 48.4976 33.1552 51.3447 33.1552Z" fill="#00D7F5"/>
<path d="M56.5 28C56.5 30.8425 54.1873 33.1552 51.3447 33.1552C48.5022 33.1552 46.1896 30.8425 46.1896 28H56.5Z" fill="#00A4CC"/>
<path d="M44.3156 47.2134C47.1628 47.2134 49.4708 44.9054 49.4708 42.0582C49.4708 39.2111 47.1628 36.9031 44.3156 36.9031C41.4685 36.9031 39.1605 39.2111 39.1605 42.0582C39.1605 44.9054 41.4685 47.2134 44.3156 47.2134Z" fill="#00D7F5"/>
<path d="M49.4708 42.0583C49.4708 44.9009 47.1581 47.2135 44.3155 47.2135C41.473 47.2135 39.1603 44.9009 39.1603 42.0583H49.4708Z" fill="#00A4CC"/>
<path d="M28.5 56C13.0327 56 0.5 43.4861 0.5 28C0.5 12.5327 13.0139 0 28.5 0C29.4061 0 30.1406 0.734562 30.1406 1.64062V54.3594C30.1406 55.2654 29.4061 56 28.5 56Z" fill="#0099FF"/>
<path d="M28.5 56C29.4061 56 30.1406 55.2654 30.1406 54.3594V28H0.5C0.5 43.4861 13.0327 56 28.5 56Z" fill="#0069FF"/>
<path d="M11.021 45.479C13.4682 47.9262 16.3385 49.7958 19.4664 51.0221C18.6235 49.9727 17.8347 48.767 17.1115 47.4111C16.2234 45.746 15.4635 43.9087 14.8396 41.9417H8.08157C8.95062 43.2086 9.9346 44.3927 11.021 45.479ZM12.828 29.6406H3.83618C4.04224 32.806 4.84276 35.856 6.1849 38.6605H13.9529C13.3096 35.818 12.9271 32.7771 12.828 29.6406Z" fill="#0039FF"/>
<path d="M17.1115 8.58892C17.8347 7.233 18.6235 6.02725 19.4664 4.97791C16.3385 6.20422 13.4682 8.07387 11.021 10.521C9.93454 11.6073 8.95056 12.7914 8.08157 14.0583H14.8396C15.4636 12.0914 16.2234 10.254 17.1115 8.58892ZM13.9529 17.3396H6.1849C4.84265 20.1441 4.04224 23.194 3.83618 26.3594H12.828C12.9271 23.223 13.3096 20.182 13.9529 17.3396Z" fill="#0069FF"/>
<path d="M20.0067 45.867C21.947 49.505 24.3347 51.7972 26.8594 52.4935V41.9417H18.2965C18.7899 43.3412 19.3611 44.6564 20.0067 45.867Z" fill="#0039FF"/>
<path d="M16.1107 26.3594H26.8594V17.3396H17.3212C16.6292 20.1466 16.2168 23.1941 16.1107 26.3594ZM26.8594 3.50659C24.3347 4.20287 21.947 6.49504 20.0067 10.1331C19.3611 11.3436 18.7899 12.6589 18.2965 14.0584H26.8594V3.50659Z" fill="#0069FF"/>
<path d="M16.1107 29.6406C16.2168 32.8059 16.6292 35.8535 17.3212 38.6605H26.8594V29.6406H16.1107Z" fill="#0039FF"/>
</svg>
